<?xml version="1.0" encoding="utf-8"?>
<svg id="master-artboard" viewBox="0 0 1400 980" version="1.1" xmlns="http://www.w3.org/2000/svg" x="0px" y="0px" width="1400px" height="980px" enable-background="new 0 0 1400 980">
<path d="M769.374,194.396c-0.001,0-0.005,0-0.009,0c-1.467-0.002-2.856-0.664-3.776-1.807l0,0&#10;&#9;&#9;&#9;c-0.055-0.07-5.794-7.109-17.118-15.46c-13.608-10.035-15.486-18.143-15.486-25.407c0-13.415,8.948-23.152,21.272-23.152&#10;&#9;&#9;&#9;c5.886,0,11.286,3.512,15.038,7.702c3.661-4.349,8.874-7.702,15.473-7.702c12.163,0,20.99,9.737,20.99,23.152&#10;&#9;&#9;&#9;c0,7.266-1.874,15.372-15.484,25.407c-11.322,8.35-17.063,15.39-17.118,15.46C772.233,193.73,770.841,194.396,769.374,194.396z&#10;&#9;&#9;&#9; M754.257,138.281c-7.984,0-11.562,6.75-11.562,13.441c0,3.617,0,9.083,11.539,17.593c6.994,5.157,12.026,9.851,15.139,13.027&#10;&#9;&#9;&#9;c3.11-3.176,8.144-7.871,15.135-13.027c11.539-8.51,11.539-13.976,11.539-17.593c0-6.691-3.485-13.441-11.279-13.441&#10;&#9;&#9;&#9;c-5.26,0-9.172,4.833-10.927,8.973c-0.779,1.842-2.647,3.004-4.608,2.959c-2.001-0.059-3.76-1.337-4.435-3.221&#10;&#9;&#9;&#9;C763.576,143.565,758.497,138.281,754.257,138.281z" transform="matrix(4.890826603143596, 0, 0, 4.890826603143596, -2817.7100236173337, -622.2790808644199)" style="fill: rgb(255, 255, 255);"/><path d="M684.413,306.687c-41.728,0-75.676-33.95-75.676-75.679c0-41.728,33.948-75.675,75.676-75.675&#10;&#9;&#9;&#9;c41.729,0,75.674,33.947,75.674,75.675c0,20.973-8.383,40.476-23.604,54.913c-1.945,1.847-5.018,1.762-6.862-0.18&#10;&#9;&#9;&#9;c-1.848-1.946-1.765-5.018,0.183-6.864c13.268-12.586,20.573-29.585,20.573-47.869c0-36.373-29.59-65.964-65.963-65.964&#10;&#9;&#9;&#9;s-65.965,29.591-65.965,65.964c0,36.375,29.592,65.968,65.965,65.968c7.028,0,13.946-1.1,20.563-3.27&#10;&#9;&#9;&#9;c2.545-0.823,5.291,0.556,6.125,3.102c0.835,2.549-0.553,5.292-3.1,6.127C700.406,305.423,692.47,306.687,684.413,306.687z" transform="matrix(4.890826603143596, 0, 0, 4.890826603143596, -2817.7100236173337, -622.2790808644199)" style="fill: rgb(255, 255, 255);"/><path d="M766.065,316.318c-36.288,0-65.813-29.524-65.813-65.814c0-21.879,10.831-42.27,28.972-54.541&#10;&#9;&#9;&#9;c2.224-1.506,5.241-0.92,6.743,1.301c1.502,2.221,0.92,5.239-1.301,6.741c-15.467,10.465-24.704,27.848-24.704,46.5&#10;&#9;&#9;&#9;c0,30.935,25.168,56.104,56.103,56.104c30.936,0,56.104-25.168,56.104-56.104c0-30.936-25.168-56.104-56.104-56.104&#10;&#9;&#9;&#9;c-2.258,0-4.53,0.134-6.752,0.402c-2.671,0.318-5.079-1.582-5.4-4.243c-0.318-2.663,1.58-5.08,4.243-5.4&#10;&#9;&#9;&#9;c2.605-0.312,5.265-0.471,7.909-0.471c36.289,0,65.814,29.525,65.814,65.815C831.88,286.793,802.354,316.318,766.065,316.318z" transform="matrix(4.890826603143596, 0, 0, 4.890826603143596, -2817.7100236173337, -622.2790808644199)" style="fill: rgb(255, 255, 255);"/>
</svg>